<?xml version="1.0" encoding="UTF-8"?>
<svg xmlns="http://www.w3.org/2000/svg" xmlns:xlink="http://www.w3.org/1999/xlink" width="375px" height="375px" viewBox="0 0 375 375" version="1.1">
<g id="surface1">
<path style=" stroke:none;fill-rule:nonzero;fill:rgb(99.607843%,99.607843%,99.607843%);fill-opacity:1;" d="M -24.800781 185.398438 L -24.800781 -2.636719 L 425.398438 -2.636719 L 425.398438 373.429688 L -24.800781 373.429688 Z M 289.035156 343.5625 C 310.6875 341.503906 329.78125 338.195312 360.476562 331.179688 L 363.230469 330.550781 L 363.230469 292.863281 C 363.230469 272.136719 362.84375 255.175781 362.367188 255.175781 C 361.894531 255.175781 358.53125 256.609375 354.894531 258.359375 C 345.566406 262.855469 324.265625 270.460938 313.601562 273.105469 C 282.25 280.882812 246.789062 281.652344 213.332031 275.277344 C 181.703125 269.253906 155.023438 259.542969 120.082031 241.335938 C 89.503906 225.402344 62.882812 207.847656 31.347656 182.816406 C 22.800781 176.03125 15.015625 169.855469 14.050781 169.089844 C 12.386719 167.769531 12.296875 170.328125 12.296875 219.1875 L 12.296875 270.679688 L 27.085938 279.40625 C 87.773438 315.222656 148.773438 336.167969 212.328125 343.015625 C 228.277344 344.734375 273.320312 345.054688 289.035156 343.5625 Z M 217.628906 256.628906 C 236.304688 252.496094 253.492188 237.996094 262.304688 218.933594 C 274.417969 192.730469 271.515625 164.40625 254.335938 141.183594 C 233.839844 113.46875 193.574219 106.621094 165.582031 126.089844 C 128.800781 151.664062 123.15625 204.332031 153.671875 237.167969 C 165.191406 249.558594 178.429688 256.417969 194.28125 258.207031 C 202.640625 259.148438 207.832031 258.800781 217.628906 256.628906 Z M 363.230469 211.082031 L 363.230469 178.703125 L 352.453125 171.285156 C 325.234375 152.554688 295.222656 137.410156 268.480469 128.914062 C 260.757812 126.460938 245.777344 122.9375 245.246094 123.449219 C 245.152344 123.539062 247.984375 126.140625 251.535156 129.230469 C 259.191406 135.886719 265.992188 145.285156 270.59375 155.566406 C 275.03125 165.480469 276.945312 173.699219 277.675781 185.964844 L 278.28125 196.117188 L 281.902344 197.839844 C 283.894531 198.789062 287.78125 200.398438 290.539062 201.417969 C 305.300781 206.882812 335.269531 223.984375 353.707031 237.464844 C 358.117188 240.691406 362.066406 243.359375 362.480469 243.394531 C 362.894531 243.429688 363.230469 228.886719 363.230469 211.082031 Z M 363.230469 113.460938 L 363.230469 71.882812 L 355.460938 68.082031 C 250.023438 16.476562 136.925781 9.15625 19.4375 46.332031 L 12.296875 48.589844 L 12.296875 143.5625 L 14.550781 142 C 15.792969 141.144531 20.417969 138.273438 24.828125 135.625 C 104.496094 87.761719 185.285156 78.90625 270.605469 108.683594 C 295.339844 117.316406 327.320312 132.976562 350.699219 147.898438 C 356.765625 151.769531 362.066406 154.960938 362.480469 154.984375 C 362.894531 155.011719 363.230469 136.324219 363.230469 113.460938 Z M 363.230469 113.460938 "/>
<path style=" stroke:none;fill-rule:nonzero;fill:rgb(9.411765%,52.156866%,92.156863%);fill-opacity:1;" d="M 193.253906 257.382812 C 159.179688 251.644531 135.242188 222.59375 135.253906 186.996094 C 135.265625 158.777344 149.792969 134.714844 174.226562 122.449219 C 181.945312 118.574219 193.886719 115.617188 201.800781 115.617188 C 219.429688 115.617188 241.519531 126.425781 252.203125 140.28125 C 263.054688 154.347656 268.175781 168.875 268.296875 185.929688 C 268.421875 203.570312 264.203125 216.804688 254 230.789062 C 240.0625 249.886719 214.699219 260.992188 193.253906 257.382812 Z M 193.253906 257.382812 "/>
<path style=" stroke:none;fill-rule:nonzero;fill:rgb(0.392157%,0%,3.529412%);fill-opacity:1;" d="M 235.890625 342.960938 C 162.875 338.75 95.761719 317.660156 27.410156 277.449219 L 12.796875 268.855469 L 12.796875 170.476562 L 28.929688 183.355469 C 132.066406 265.671875 228.480469 296.605469 314.101562 274.851562 C 327.308594 271.496094 337.675781 267.925781 351.5 261.96875 C 357.453125 259.40625 362.414062 257.308594 362.527344 257.308594 C 362.640625 257.308594 362.730469 273.320312 362.730469 292.890625 L 362.730469 328.472656 L 349.195312 331.699219 C 331.523438 335.914062 314.042969 338.929688 296.054688 340.871094 C 281.199219 342.46875 247.613281 343.636719 235.890625 342.960938 Z M 354.585938 235.632812 C 334.023438 220.804688 306.277344 205.242188 289.535156 199.144531 L 281.515625 196.222656 L 281.3125 186.550781 C 280.960938 169.9375 276.164062 155.105469 266.457031 140.652344 C 264.097656 137.136719 260.78125 132.867188 259.089844 131.167969 C 257.402344 129.464844 256.21875 127.726562 256.464844 127.304688 C 256.898438 126.558594 278.328125 134.066406 291.875 139.710938 C 310.46875 147.460938 333.714844 160.441406 352.203125 173.402344 L 362.730469 180.78125 L 362.730469 211.054688 C 362.730469 227.703125 362.675781 241.328125 362.605469 241.328125 C 362.539062 241.328125 358.929688 238.765625 354.585938 235.632812 Z M 357.71875 149.992188 C 339.386719 137.253906 303.074219 118.785156 277.503906 109.191406 C 187.605469 75.460938 98.21875 85.671875 15.804688 139.082031 L 12.796875 141.03125 L 13.007812 95.582031 L 13.214844 50.132812 L 15.511719 49.445312 C 74.746094 31.746094 115.792969 25.0625 165.257812 25.0625 C 230.375 25.0625 290.246094 38.941406 351.042969 68.132812 L 362.425781 73.597656 L 362.578125 113.25 C 362.664062 135.058594 362.503906 152.875 362.230469 152.839844 C 361.953125 152.804688 359.921875 151.523438 357.71875 149.992188 Z M 357.71875 149.992188 "/>
</g>
</svg>
